<?xml version="1.0" standalone="no"?>
<!DOCTYPE svg PUBLIC "-//W3C//DTD SVG 20010904//EN"
 "http://www.w3.org/TR/2001/REC-SVG-20010904/DTD/svg10.dtd">
<svg version="1.0" xmlns="http://www.w3.org/2000/svg"
 width="32px" height="64px" viewBox="0 0 640.000000 1280.000000"
 preserveAspectRatio="xMidYMid meet">
<g transform="translate(0.000000,1280.000000) scale(0.100000,-0.100000)"
fill="#000000" stroke="none">
<path d="M3075 12795 c-5 -2 -75 -11 -153 -20 -465 -52 -876 -201 -1267 -461
-620 -411 -1091 -1057 -1301 -1783 -25 -85 -41 -158 -37 -162 4 -4 62 -36 128
-71 434 -233 808 -534 1099 -883 33 -38 63 -72 68 -73 14 -6 55 97 72 180 9
42 16 114 16 160 1 244 73 518 201 768 85 165 176 287 319 431 187 188 374
305 601 377 388 124 844 50 1214 -195 144 -96 320 -274 416 -421 l74 -114 41
89 c136 294 239 657 286 1008 19 143 18 636 -1 659 -36 43 -339 208 -524 285
-275 114 -507 168 -943 220 -85 10 -287 14 -309 6z"/>
<path d="M6100 9990 c-395 -615 -807 -1024 -1281 -1269 l-114 -59 -3 -721 c-2
-682 -1 -721 15 -721 50 0 471 141 688 230 170 70 511 242 650 328 l110 67 3
1062 c1 584 -1 1085 -6 1115 l-8 53 -54 -85z"/>
<path d="M5980 5364 c-303 -153 -706 -300 -1095 -402 l-180 -47 -3 -1058 c-1
-581 1 -1057 5 -1057 17 0 354 91 468 125 279 85 575 204 838 337 l157 79 0
1055 c0 837 -3 1054 -12 1052 -7 -1 -87 -39 -178 -84z"/>
<path d="M6020 1195 c-351 -194 -723 -338 -1263 -490 l-58 -16 7 -47 c23 -159
93 -293 218 -417 101 -100 182 -149 301 -183 202 -56 226 -56 430 4 224 66
403 244 482 479 27 79 27 83 31 413 2 182 0 332 -5 332 -4 -1 -69 -34 -143
-75z"/>
</g>
</svg>
